<?xml version="1.0" encoding="UTF-8" standalone="no"?>
<!-- Created with Inkscape (http://www.inkscape.org/) -->
<svg
   xmlns:dc="http://purl.org/dc/elements/1.1/"
   xmlns:cc="http://creativecommons.org/ns#"
   xmlns:rdf="http://www.w3.org/1999/02/22-rdf-syntax-ns#"
   xmlns:svg="http://www.w3.org/2000/svg"
   xmlns="http://www.w3.org/2000/svg"
   xmlns:xlink="http://www.w3.org/1999/xlink"
   xmlns:sodipodi="http://sodipodi.sourceforge.net/DTD/sodipodi-0.dtd"
   xmlns:inkscape="http://www.inkscape.org/namespaces/inkscape"
   width="2959.3608"
   height="1050"
   id="svg2"
   sodipodi:version="0.32"
   inkscape:version="0.46"
   version="1.0"
   sodipodi:docname="awesome-reflect-bg-ds.svg"
   inkscape:output_extension="org.inkscape.output.svg.inkscape"
   inkscape:export-filename="/home/garoth/Desktop/awesome-reflect-bg.png"
   inkscape:export-xdpi="90"
   inkscape:export-ydpi="90">
  <defs
     id="defs4">
    <linearGradient
       inkscape:collect="always"
       id="linearGradient3855">
      <stop
         style="stop-color:#2e3436;stop-opacity:1;"
         offset="0"
         id="stop3857" />
      <stop
         style="stop-color:#2e3436;stop-opacity:0;"
         offset="1"
         id="stop3859" />
    </linearGradient>
    <linearGradient
       id="linearGradient3509">
      <stop
         style="stop-color:#e2ebf6;stop-opacity:1;"
         offset="0"
         id="stop3511" />
      <stop
         style="stop-color:#a5c2e1;stop-opacity:0;"
         offset="1"
         id="stop3513" />
    </linearGradient>
    <inkscape:perspective
       sodipodi:type="inkscape:persp3d"
       inkscape:vp_x="0 : 526.18109 : 1"
       inkscape:vp_y="0 : 1000 : 0"
       inkscape:vp_z="744.09448 : 526.18109 : 1"
       inkscape:persp3d-origin="372.04724 : 350.78739 : 1"
       id="perspective10" />
    <radialGradient
       inkscape:collect="always"
       xlink:href="#linearGradient3509"
       id="radialGradient3705"
       gradientUnits="userSpaceOnUse"
       gradientTransform="matrix(1.0989232,2.6611799e-7,-1.7903379e-8,0.112789,57.826704,351.61782)"
       cx="805.2478"
       cy="1446.0295"
       fx="805.2478"
       fy="1446.0295"
       r="905.32819" />
    <radialGradient
       inkscape:collect="always"
       xlink:href="#linearGradient3509"
       id="radialGradient3798"
       gradientUnits="userSpaceOnUse"
       gradientTransform="matrix(0.9615578,2.3285324e-7,-1.5665457e-8,9.869036e-2,30.955509,442.66559)"
       cx="805.2478"
       cy="1446.0295"
       fx="805.2478"
       fy="1446.0295"
       r="905.32819" />
    <radialGradient
       inkscape:collect="always"
       xlink:href="#linearGradient3509"
       id="radialGradient3801"
       gradientUnits="userSpaceOnUse"
       gradientTransform="matrix(0.9614408,1.4994035e-2,-1.532139e-3,9.8243664e-2,34.070459,434.85152)"
       cx="710.81299"
       cy="1820.6115"
       fx="710.81299"
       fy="1820.6115"
       r="905.32819" />
    <radialGradient
       inkscape:collect="always"
       xlink:href="#linearGradient3509"
       id="radialGradient3812"
       gradientUnits="userSpaceOnUse"
       gradientTransform="matrix(0.9615578,2.3285324e-7,-1.5665457e-8,9.869036e-2,30.955509,442.66559)"
       cx="805.2478"
       cy="1446.0295"
       fx="805.2478"
       fy="1446.0295"
       r="905.32819" />
    <radialGradient
       inkscape:collect="always"
       xlink:href="#linearGradient3855"
       id="radialGradient3861"
       cx="694.34998"
       cy="266.92209"
       fx="694.34998"
       fy="266.92209"
       r="685.82928"
       gradientTransform="matrix(1.1062227,-3.0899636e-7,4.3166413e-8,0.1529281,-85.247116,575.3519)"
       gradientUnits="userSpaceOnUse" />
    <radialGradient
       inkscape:collect="always"
       xlink:href="#linearGradient3509"
       id="radialGradient3193"
       gradientUnits="userSpaceOnUse"
       gradientTransform="matrix(0.9615578,2.3285324e-7,-1.5665457e-8,9.8690375e-2,30.955509,442.66559)"
       cx="690.59052"
       cy="1841.1852"
       fx="690.59052"
       fy="1841.1852"
       r="905.32819" />
    <radialGradient
       inkscape:collect="always"
       xlink:href="#linearGradient3509"
       id="radialGradient3222"
       gradientUnits="userSpaceOnUse"
       gradientTransform="matrix(0.9615578,2.3285324e-7,-1.5665457e-8,9.8690375e-2,-198.55235,422.69683)"
       cx="2441.1614"
       cy="1920.9758"
       fx="2441.1614"
       fy="1920.9758"
       r="905.32819" />
    <radialGradient
       inkscape:collect="always"
       xlink:href="#linearGradient3855"
       id="radialGradient3224"
       gradientUnits="userSpaceOnUse"
       gradientTransform="matrix(1.1062227,-3.0899636e-7,4.3166413e-8,0.1529281,-314.75495,555.38314)"
       cx="2249.8064"
       cy="352.05032"
       fx="2249.8064"
       fy="352.05032"
       r="685.82928" />
  </defs>
  <sodipodi:namedview
     id="base"
     pagecolor="#ffffff"
     bordercolor="#666666"
     borderopacity="1.0"
     gridtolerance="10000"
     guidetolerance="10"
     objecttolerance="10"
     inkscape:pageopacity="0.0"
     inkscape:pageshadow="2"
     inkscape:zoom="0.25396919"
     inkscape:cx="2465.7336"
     inkscape:cy="557.13185"
     inkscape:document-units="px"
     inkscape:current-layer="layer1"
     showgrid="false"
     inkscape:window-width="1654"
     inkscape:window-height="1048"
     inkscape:window-x="24"
     inkscape:window-y="0"
     showguides="true"
     inkscape:guide-bbox="true"
     showborder="true" />
  <metadata
     id="metadata7">
    <rdf:RDF>
      <cc:Work
         rdf:about="">
        <dc:format>image/svg+xml</dc:format>
        <dc:type
           rdf:resource="http://purl.org/dc/dcmitype/StillImage" />
      </cc:Work>
    </rdf:RDF>
  </metadata>
  <g
     inkscape:label="Layer 1"
     inkscape:groupmode="layer"
     id="layer1"
     transform="translate(157.14285,-30)">
    <rect
       style="fill:#222222;fill-opacity:1;stroke:none;stroke-width:10;stroke-linecap:round;stroke-linejoin:miter;stroke-miterlimit:4;stroke-dasharray:none"
       id="rect2383"
       width="1680"
       height="1050"
       x="-157.14285"
       y="30" />
    <path
       style="fill:#2e3436;fill-opacity:1;stroke:none"
       d="M 929.13758,486.62213 L 792.41986,487.61138 L 792.41986,624.37868 L 929.13758,624.37868 L 929.13758,486.62213 z M 858.41107,532.72234 L 864.53152,532.77175 L 864.53152,585.89585 L 857.91652,585.89585 L 858.41107,532.7223 L 858.41107,532.72234 z"
       id="path2650"
       sodipodi:nodetypes="ccccccccccc" />
    <path
       style="fill:#2e3436;fill-opacity:1;stroke:none"
       d="M 82.757973,485.62132 L 221.51528,485.62132 L 221.51528,624.37868 L 176.9509,624.37868 L 176.9509,575.47674 L 125.66002,575.47674 L 126.19202,580.85857 L 171.60049,580.85857 L 171.60049,624.37868 L 82.757973,624.37868 L 82.757973,534.60034 L 179.98949,534.60034 L 179.98949,529.1729 L 83.121352,529.1729 L 82.757973,485.62132 L 82.757973,485.62132 L 82.757973,485.62132 L 82.757973,485.62132 L 82.757973,485.62132 z"
       id="path2644"
       sodipodi:nodetypes="ccccccccccccccccccc" />
    <path
       style="fill:#2e3436;fill-opacity:1;stroke:none"
       d="M 260.42493,488.65979 L 260.42493,624.37868 L 398.16938,624.37868 L 398.16938,488.65978 L 352.59214,488.65978 L 352.59214,582.85276 L 347.42874,583.22347 L 347.42874,488.65979 L 308.02763,488.65979 L 308.02763,581.83992 L 302.96361,581.83992 L 302.96361,488.65979 L 262.45053,488.65979 L 260.42493,488.65979 L 260.42493,488.65979 z"
       id="path2646"
       sodipodi:nodetypes="ccccccccccccccc" />
    <path
       style="fill:#2e3436;fill-opacity:1;stroke:none"
       d="M 750.46495,486.63416 L 750.46495,528.16008 L 657.28457,528.16008 L 657.28457,534.23702 L 750.46495,534.23702 L 750.46495,624.37868 L 616.77153,624.37868 L 616.77153,580.8271 L 705.90026,580.8271 L 705.90026,574.75014 L 616.77153,574.75014 L 616.77153,486.63416 L 750.46495,486.63416 L 750.46495,486.63416 L 750.46495,486.63416 z"
       id="path2648"
       sodipodi:nodetypes="cccccccccccccc" />
    <path
       sodipodi:nodetypes="ccccccccccccccc"
       id="path2656"
       d="M 969.06698,624.37867 L 969.06698,488.65979 L 1106.8116,488.65979 L 1106.8116,624.37868 L 1061.2343,624.37868 L 1061.2343,530.18571 L 1056.0708,529.81499 L 1056.0708,624.37867 L 1016.6699,624.37867 L 1016.6699,531.19853 L 1011.6058,531.19853 L 1011.6058,624.37867 L 971.09269,624.37867 L 969.06698,624.37867 L 969.06698,624.37867 L 969.06698,624.37867 z"
       style="fill:#2e3436;fill-opacity:1;stroke:none" />
    <path
       sodipodi:nodetypes="ccccccccccccccc"
       id="path2654"
       d="M 574.317,486.63416 L 438.59826,486.63416 L 438.59826,624.37868 L 574.31714,624.37868 L 574.31714,578.80144 L 480.12403,578.80144 L 479.75334,573.63798 L 574.317,573.63798 L 574.317,534.23704 L 481.1369,534.23704 L 481.1369,529.1729 L 574.317,529.1729 L 574.317,488.65981 L 574.317,486.63416 L 574.317,486.63416 L 574.317,486.63416 z"
       style="fill:#2e3436;fill-opacity:1;stroke:none" />
    <path
       style="fill:#2e3436;fill-opacity:1;stroke:none"
       d="M 1282.9592,486.63414 L 1147.2403,486.63414 L 1147.2403,624.37868 L 1282.9592,624.37868 L 1282.9592,578.80144 L 1188.7663,578.80144 L 1188.3955,573.63797 L 1282.9592,573.63797 L 1282.9592,534.23704 L 1189.7791,534.23704 L 1189.7791,529.1729 L 1282.9592,529.1729 L 1282.9592,488.65981 L 1282.9592,486.63414 L 1282.9592,486.63414 z"
       id="path2658"
       sodipodi:nodetypes="ccccccccccccccc" />
    <path
       id="path3459"
       style="opacity:0.39830508;fill:url(#radialGradient3193);fill-opacity:1;stroke:none;stroke-opacity:1"
       d="M 792.4167,567.67153 L 792.4167,624.37301 L 929.13697,624.37301 L 929.13697,575.07187 C 907.66246,573.48298 886.11593,572.10337 864.53896,570.91693 L 864.53896,585.90365 L 857.92413,585.90365 L 858.06886,570.56552 C 836.18658,569.40288 814.29123,568.42966 792.4167,567.67153 z M 969.07398,578.25525 L 969.07398,624.37301 L 971.09978,624.37301 L 1011.6156,624.37301 L 1011.6156,582.22415 C 997.49284,580.81232 983.30612,579.4832 969.07398,578.25525 z M 1016.6799,582.74094 L 1016.6799,624.37301 L 1056.0797,624.37301 L 1056.0797,586.99923 C 1043.0127,585.49541 1029.8706,584.08171 1016.6799,582.74094 z M 1061.2268,587.5987 L 1061.2268,624.37301 L 1106.807,624.37301 L 1106.807,593.28331 C 1091.721,591.26785 1076.523,589.38685 1061.2268,587.5987 z M 969.07398,579.08211 L 969.07398,624.37301 L 971.09978,624.37301 L 1011.6156,624.37301 L 1011.6156,583.07168 C 997.49661,581.64055 983.30551,580.32904 969.07398,579.08211 z M 1016.6799,583.60913 L 1016.6799,624.37301 L 1056.0797,624.37301 L 1056.0797,587.90877 C 1043.0126,586.38566 1029.8735,584.9687 1016.6799,583.60913 z M 1061.2268,588.52891 L 1061.2268,624.37301 L 1106.807,624.37301 L 1106.807,594.31688 C 1091.7216,592.27742 1076.5266,590.34017 1061.2268,588.52891 z M 221.5157,596.36335 C 206.21449,598.77246 191.34624,601.31704 176.9483,603.99107 L 176.9483,624.37301 L 221.5157,624.37301 L 221.5157,596.36335 z M 171.59442,604.98329 C 140.66293,610.84571 111.97176,617.31944 85.911727,624.37301 L 171.59442,624.37301 L 171.59442,604.98329 z M 398.17295,576.00208 C 382.74627,577.22962 367.55796,578.56975 352.59265,580.01232 L 352.59265,582.84429 L 347.42481,583.21638 L 347.42481,580.50843 C 317.3523,583.4675 288.27788,586.831 260.41915,590.63739 L 260.41915,624.37301 L 398.17295,624.37301 L 398.17295,576.00208 z M 657.84629,565.93514 C 644.09375,565.95063 630.40312,566.03332 616.77235,566.20387 L 616.77235,574.74113 L 705.90715,574.74113 L 705.90715,580.8185 L 616.77235,580.8185 L 616.77235,624.37301 L 750.47459,624.37301 L 750.47459,567.01005 C 719.4308,566.25665 688.50076,565.90058 657.84629,565.93514 z M 574.31342,567.01005 C 527.93011,568.14631 482.5064,570.15775 438.60609,573.04608 L 438.60609,624.37301 L 574.31342,624.37301 L 574.31342,578.79271 L 480.11413,578.79271 L 479.76272,573.64555 L 574.31342,573.64555 L 574.31342,567.01005 z M 1147.2402,598.6372 L 1147.2402,624.37301 L 1282.9682,624.37301 L 1282.9682,622.864 C 1239.4077,613.61893 1193.9694,605.55262 1147.2402,598.6372 z M 792.4167,567.75422 L 792.4167,624.37301 L 929.13697,624.37301 L 929.13697,574.98918 C 907.65887,573.42453 886.11357,572.05915 864.53896,570.89626 L 864.53896,585.90365 L 857.92413,585.90365 L 858.06886,570.54485 C 836.18447,569.40577 814.2874,568.48929 792.4167,567.75422 z" />
    <path
       id="path3825"
       style="fill:url(#radialGradient3861);fill-opacity:1;stroke:none"
       d="M 929.13758,772.85237 L 792.41986,771.86311 L 792.41986,635.09582 L 929.13758,635.09582 L 929.13758,772.85237 z M 858.41107,726.75216 L 864.53152,726.70275 L 864.53152,673.57865 L 857.91652,673.57865 L 858.41107,726.7522 L 858.41107,726.75216 z M 82.757973,773.85318 L 221.51528,773.85318 L 221.51528,635.09582 L 176.9509,635.09582 L 176.9509,683.99776 L 125.66002,683.99776 L 126.19202,678.61593 L 171.60049,678.61593 L 171.60049,635.09582 L 82.757973,635.09582 L 82.757973,724.87416 L 179.98949,724.87416 L 179.98949,730.3016 L 83.121352,730.3016 L 82.757973,773.85318 L 82.757973,773.85318 L 82.757973,773.85318 L 82.757973,773.85318 L 82.757973,773.85318 z M 260.42493,770.81471 L 260.42493,635.09582 L 398.16938,635.09582 L 398.16938,770.81472 L 352.59214,770.81472 L 352.59214,676.62174 L 347.42874,676.25103 L 347.42874,770.81471 L 308.02763,770.81471 L 308.02763,677.63458 L 302.96361,677.63458 L 302.96361,770.81471 L 262.45053,770.81471 L 260.42493,770.81471 L 260.42493,770.81471 z M 750.46495,772.84034 L 750.46495,731.31442 L 657.28457,731.31442 L 657.28457,725.23748 L 750.46495,725.23748 L 750.46495,635.09582 L 616.77153,635.09582 L 616.77153,678.6474 L 705.90026,678.6474 L 705.90026,684.72436 L 616.77153,684.72436 L 616.77153,772.84034 L 750.46495,772.84034 L 750.46495,772.84034 L 750.46495,772.84034 z M 969.06698,635.09583 L 969.06698,770.81471 L 1106.8116,770.81471 L 1106.8116,635.09582 L 1061.2343,635.09582 L 1061.2343,729.28879 L 1056.0708,729.65951 L 1056.0708,635.09583 L 1016.6699,635.09583 L 1016.6699,728.27597 L 1011.6058,728.27597 L 1011.6058,635.09583 L 971.09269,635.09583 L 969.06698,635.09583 L 969.06698,635.09583 L 969.06698,635.09583 z M 574.317,772.84034 L 438.59826,772.84034 L 438.59826,635.09582 L 574.31714,635.09582 L 574.31714,680.67306 L 480.12403,680.67306 L 479.75334,685.83652 L 574.317,685.83652 L 574.317,725.23746 L 481.1369,725.23746 L 481.1369,730.3016 L 574.317,730.3016 L 574.317,770.81469 L 574.317,772.84034 L 574.317,772.84034 L 574.317,772.84034 z M 1282.9592,772.84036 L 1147.2403,772.84036 L 1147.2403,635.09582 L 1282.9592,635.09582 L 1282.9592,680.67306 L 1188.7663,680.67306 L 1188.3955,685.83653 L 1282.9592,685.83653 L 1282.9592,725.23746 L 1189.7791,725.23746 L 1189.7791,730.3016 L 1282.9592,730.3016 L 1282.9592,770.81469 L 1282.9592,772.84036 L 1282.9592,772.84036 z" />
    <rect
       y="30.125031"
       x="1522.218"
       height="1024"
       width="1280"
       id="rect3202"
       style="fill:#222222;fill-opacity:1;stroke:none;stroke-width:10;stroke-linecap:round;stroke-linejoin:miter;stroke-miterlimit:4;stroke-dasharray:none" />
    <path
       sodipodi:nodetypes="ccccccccccc"
       id="path3204"
       d="M 2408.4985,460.74714 L 2271.7808,461.73639 L 2271.7808,598.50369 L 2408.4985,598.50369 L 2408.4985,460.74714 z M 2337.772,506.84735 L 2343.8925,506.89676 L 2343.8925,560.02086 L 2337.2775,560.02086 L 2337.772,506.84731 L 2337.772,506.84735 z"
       style="fill:#2e3436;fill-opacity:1;stroke:none" />
    <path
       sodipodi:nodetypes="ccccccccccccccccccc"
       id="path3206"
       d="M 1562.1189,459.74633 L 1700.8762,459.74633 L 1700.8762,598.50369 L 1656.3119,598.50369 L 1656.3119,549.60175 L 1605.021,549.60175 L 1605.553,554.98358 L 1650.9615,554.98358 L 1650.9615,598.50369 L 1562.1189,598.50369 L 1562.1189,508.72535 L 1659.3505,508.72535 L 1659.3505,503.29791 L 1562.4823,503.29791 L 1562.1189,459.74633 L 1562.1189,459.74633 L 1562.1189,459.74633 L 1562.1189,459.74633 L 1562.1189,459.74633 z"
       style="fill:#2e3436;fill-opacity:1;stroke:none" />
    <path
       sodipodi:nodetypes="ccccccccccccccc"
       id="path3208"
       d="M 1739.7859,462.7848 L 1739.7859,598.50369 L 1877.5303,598.50369 L 1877.5303,462.78479 L 1831.9531,462.78479 L 1831.9531,556.97777 L 1826.7897,557.34848 L 1826.7897,462.7848 L 1787.3886,462.7848 L 1787.3886,555.96493 L 1782.3246,555.96493 L 1782.3246,462.7848 L 1741.8115,462.7848 L 1739.7859,462.7848 L 1739.7859,462.7848 z"
       style="fill:#2e3436;fill-opacity:1;stroke:none" />
    <path
       sodipodi:nodetypes="cccccccccccccc"
       id="path3210"
       d="M 2229.8259,460.75917 L 2229.8259,502.28509 L 2136.6455,502.28509 L 2136.6455,508.36203 L 2229.8259,508.36203 L 2229.8259,598.50369 L 2096.1325,598.50369 L 2096.1325,554.95211 L 2185.2612,554.95211 L 2185.2612,548.87515 L 2096.1325,548.87515 L 2096.1325,460.75917 L 2229.8259,460.75917 L 2229.8259,460.75917 L 2229.8259,460.75917 z"
       style="fill:#2e3436;fill-opacity:1;stroke:none" />
    <path
       style="fill:#2e3436;fill-opacity:1;stroke:none"
       d="M 2448.4279,598.50368 L 2448.4279,462.7848 L 2586.1726,462.7848 L 2586.1726,598.50369 L 2540.5953,598.50369 L 2540.5953,504.31072 L 2535.4318,503.94 L 2535.4318,598.50368 L 2496.0309,598.50368 L 2496.0309,505.32354 L 2490.9668,505.32354 L 2490.9668,598.50368 L 2450.4537,598.50368 L 2448.4279,598.50368 L 2448.4279,598.50368 L 2448.4279,598.50368 z"
       id="path3212"
       sodipodi:nodetypes="ccccccccccccccc" />
    <path
       style="fill:#2e3436;fill-opacity:1;stroke:none"
       d="M 2053.678,460.75917 L 1917.9592,460.75917 L 1917.9592,598.50369 L 2053.6781,598.50369 L 2053.6781,552.92645 L 1959.485,552.92645 L 1959.1143,547.76299 L 2053.678,547.76299 L 2053.678,508.36205 L 1960.4979,508.36205 L 1960.4979,503.29791 L 2053.678,503.29791 L 2053.678,462.78482 L 2053.678,460.75917 L 2053.678,460.75917 L 2053.678,460.75917 z"
       id="path3214"
       sodipodi:nodetypes="ccccccccccccccc" />
    <path
       sodipodi:nodetypes="ccccccccccccccc"
       id="path3216"
       d="M 2762.3202,460.75915 L 2626.6013,460.75915 L 2626.6013,598.50369 L 2762.3202,598.50369 L 2762.3202,552.92645 L 2668.1273,552.92645 L 2667.7565,547.76298 L 2762.3202,547.76298 L 2762.3202,508.36205 L 2669.1401,508.36205 L 2669.1401,503.29791 L 2762.3202,503.29791 L 2762.3202,462.78482 L 2762.3202,460.75915 L 2762.3202,460.75915 z"
       style="fill:#2e3436;fill-opacity:1;stroke:none" />
    <path
       d="M 2271.7777,541.79654 L 2271.7777,598.49802 L 2408.4979,598.49802 L 2408.4979,549.19688 C 2387.0234,547.60799 2365.4769,546.22838 2343.8999,545.04194 L 2343.8999,560.02866 L 2337.2851,560.02866 L 2337.4298,544.69053 C 2315.5475,543.52789 2293.6522,542.55467 2271.7777,541.79654 z M 2448.4349,552.38026 L 2448.4349,598.49802 L 2450.4607,598.49802 L 2490.9766,598.49802 L 2490.9766,556.34916 C 2476.8538,554.93733 2462.6671,553.60821 2448.4349,552.38026 z M 2496.0409,556.86595 L 2496.0409,598.49802 L 2535.4407,598.49802 L 2535.4407,561.12424 C 2522.3737,559.62042 2509.2316,558.20672 2496.0409,556.86595 z M 2540.5878,561.72371 L 2540.5878,598.49802 L 2586.168,598.49802 L 2586.168,567.40832 C 2571.082,565.39286 2555.884,563.51186 2540.5878,561.72371 z M 2448.4349,553.20712 L 2448.4349,598.49802 L 2450.4607,598.49802 L 2490.9766,598.49802 L 2490.9766,557.19669 C 2476.8576,555.76556 2462.6665,554.45405 2448.4349,553.20712 z M 2496.0409,557.73414 L 2496.0409,598.49802 L 2535.4407,598.49802 L 2535.4407,562.03378 C 2522.3736,560.51067 2509.2345,559.09371 2496.0409,557.73414 z M 2540.5878,562.65392 L 2540.5878,598.49802 L 2586.168,598.49802 L 2586.168,568.44189 C 2571.0826,566.40243 2555.8876,564.46518 2540.5878,562.65392 z M 1700.8767,570.48836 C 1685.5755,572.89747 1670.7072,575.44205 1656.3093,578.11608 L 1656.3093,598.49802 L 1700.8767,598.49802 L 1700.8767,570.48836 z M 1650.9554,579.1083 C 1620.0239,584.97072 1591.3327,591.44445 1565.2727,598.49802 L 1650.9554,598.49802 L 1650.9554,579.1083 z M 1877.5339,550.12709 C 1862.1072,551.35463 1846.9189,552.69476 1831.9536,554.13733 L 1831.9536,556.9693 L 1826.7858,557.34139 L 1826.7858,554.63344 C 1796.7133,557.59251 1767.6388,560.95601 1739.7801,564.7624 L 1739.7801,598.49802 L 1877.5339,598.49802 L 1877.5339,550.12709 z M 2137.2073,540.06015 C 2123.4547,540.07564 2109.7641,540.15833 2096.1333,540.32888 L 2096.1333,548.86614 L 2185.2681,548.86614 L 2185.2681,554.94351 L 2096.1333,554.94351 L 2096.1333,598.49802 L 2229.8356,598.49802 L 2229.8356,541.13506 C 2198.7918,540.38166 2167.8617,540.02559 2137.2073,540.06015 z M 2053.6744,541.13506 C 2007.2911,542.27132 1961.8674,544.28276 1917.9671,547.17109 L 1917.9671,598.49802 L 2053.6744,598.49802 L 2053.6744,552.91772 L 1959.4751,552.91772 L 1959.1237,547.77056 L 2053.6744,547.77056 L 2053.6744,541.13506 z M 2626.6012,572.76221 L 2626.6012,598.49802 L 2762.3292,598.49802 L 2762.3292,596.98901 C 2718.7687,587.74394 2673.3304,579.67763 2626.6012,572.76221 z M 2271.7777,541.87923 L 2271.7777,598.49802 L 2408.4979,598.49802 L 2408.4979,549.11419 C 2387.0198,547.54954 2365.4745,546.18416 2343.8999,545.02127 L 2343.8999,560.02866 L 2337.2851,560.02866 L 2337.4298,544.66986 C 2315.5454,543.53078 2293.6484,542.6143 2271.7777,541.87923 z"
       style="opacity:0.39830508;fill:url(#radialGradient3222);fill-opacity:1;stroke:none;stroke-opacity:1"
       id="path3218" />
    <path
       d="M 2408.4985,746.97738 L 2271.7808,745.98812 L 2271.7808,609.22083 L 2408.4985,609.22083 L 2408.4985,746.97738 z M 2337.772,700.87717 L 2343.8925,700.82776 L 2343.8925,647.70366 L 2337.2775,647.70366 L 2337.772,700.87721 L 2337.772,700.87717 z M 1562.1189,747.97819 L 1700.8762,747.97819 L 1700.8762,609.22083 L 1656.3119,609.22083 L 1656.3119,658.12277 L 1605.021,658.12277 L 1605.553,652.74094 L 1650.9615,652.74094 L 1650.9615,609.22083 L 1562.1189,609.22083 L 1562.1189,698.99917 L 1659.3505,698.99917 L 1659.3505,704.42661 L 1562.4823,704.42661 L 1562.1189,747.97819 L 1562.1189,747.97819 L 1562.1189,747.97819 L 1562.1189,747.97819 L 1562.1189,747.97819 z M 1739.7859,744.93972 L 1739.7859,609.22083 L 1877.5303,609.22083 L 1877.5303,744.93973 L 1831.9531,744.93973 L 1831.9531,650.74675 L 1826.7897,650.37604 L 1826.7897,744.93972 L 1787.3886,744.93972 L 1787.3886,651.75959 L 1782.3246,651.75959 L 1782.3246,744.93972 L 1741.8115,744.93972 L 1739.7859,744.93972 L 1739.7859,744.93972 z M 2229.8259,746.96535 L 2229.8259,705.43943 L 2136.6455,705.43943 L 2136.6455,699.36249 L 2229.8259,699.36249 L 2229.8259,609.22083 L 2096.1325,609.22083 L 2096.1325,652.77241 L 2185.2612,652.77241 L 2185.2612,658.84937 L 2096.1325,658.84937 L 2096.1325,746.96535 L 2229.8259,746.96535 L 2229.8259,746.96535 L 2229.8259,746.96535 z M 2448.4279,609.22084 L 2448.4279,744.93972 L 2586.1726,744.93972 L 2586.1726,609.22083 L 2540.5953,609.22083 L 2540.5953,703.4138 L 2535.4318,703.78452 L 2535.4318,609.22084 L 2496.0309,609.22084 L 2496.0309,702.40098 L 2490.9668,702.40098 L 2490.9668,609.22084 L 2450.4537,609.22084 L 2448.4279,609.22084 L 2448.4279,609.22084 L 2448.4279,609.22084 z M 2053.678,746.96535 L 1917.9592,746.96535 L 1917.9592,609.22083 L 2053.6781,609.22083 L 2053.6781,654.79807 L 1959.485,654.79807 L 1959.1143,659.96153 L 2053.678,659.96153 L 2053.678,699.36247 L 1960.4979,699.36247 L 1960.4979,704.42661 L 2053.678,704.42661 L 2053.678,744.9397 L 2053.678,746.96535 L 2053.678,746.96535 L 2053.678,746.96535 z M 2762.3202,746.96537 L 2626.6013,746.96537 L 2626.6013,609.22083 L 2762.3202,609.22083 L 2762.3202,654.79807 L 2668.1273,654.79807 L 2667.7565,659.96154 L 2762.3202,659.96154 L 2762.3202,699.36247 L 2669.1401,699.36247 L 2669.1401,704.42661 L 2762.3202,704.42661 L 2762.3202,744.9397 L 2762.3202,746.96537 L 2762.3202,746.96537 z"
       style="fill:url(#radialGradient3224);fill-opacity:1;stroke:none"
       id="path3220" />
  </g>
</svg>
