<?xml version="1.0" encoding="UTF-8" standalone="no"?>
<!-- Created with Inkscape (http://www.inkscape.org/) -->
<svg
   xmlns:dc="http://purl.org/dc/elements/1.1/"
   xmlns:cc="http://creativecommons.org/ns#"
   xmlns:rdf="http://www.w3.org/1999/02/22-rdf-syntax-ns#"
   xmlns:svg="http://www.w3.org/2000/svg"
   xmlns="http://www.w3.org/2000/svg"
   xmlns:xlink="http://www.w3.org/1999/xlink"
   xmlns:sodipodi="http://sodipodi.sourceforge.net/DTD/sodipodi-0.dtd"
   xmlns:inkscape="http://www.inkscape.org/namespaces/inkscape"
   width="1920"
   height="1200"
   id="svg2"
   sodipodi:version="0.32"
   inkscape:version="0.46"
   version="1.0"
   sodipodi:docname="awesome-reflect-bg.svg"
   inkscape:output_extension="org.inkscape.output.svg.inkscape"
   inkscape:export-filename="/home/garoth/Desktop/awesome-reflect-bg.png"
   inkscape:export-xdpi="90"
   inkscape:export-ydpi="90">
  <defs
     id="defs4">
    <linearGradient
       inkscape:collect="always"
       id="linearGradient3855">
      <stop
         style="stop-color:#2e3436;stop-opacity:1;"
         offset="0"
         id="stop3857" />
      <stop
         style="stop-color:#2e3436;stop-opacity:0;"
         offset="1"
         id="stop3859" />
    </linearGradient>
    <linearGradient
       id="linearGradient3509">
      <stop
         style="stop-color:#e2ebf6;stop-opacity:1;"
         offset="0"
         id="stop3511" />
      <stop
         style="stop-color:#a5c2e1;stop-opacity:0;"
         offset="1"
         id="stop3513" />
    </linearGradient>
    <inkscape:perspective
       sodipodi:type="inkscape:persp3d"
       inkscape:vp_x="0 : 526.18109 : 1"
       inkscape:vp_y="0 : 1000 : 0"
       inkscape:vp_z="744.09448 : 526.18109 : 1"
       inkscape:persp3d-origin="372.04724 : 350.78739 : 1"
       id="perspective10" />
    <radialGradient
       inkscape:collect="always"
       xlink:href="#linearGradient3509"
       id="radialGradient3705"
       gradientUnits="userSpaceOnUse"
       gradientTransform="matrix(0.9615578,2.3285324e-7,-1.5665457e-8,9.869036e-2,30.955509,442.66559)"
       cx="805.2478"
       cy="1446.0295"
       fx="805.2478"
       fy="1446.0295"
       r="905.32819" />
    <radialGradient
       inkscape:collect="always"
       xlink:href="#linearGradient3509"
       id="radialGradient3798"
       gradientUnits="userSpaceOnUse"
       gradientTransform="matrix(0.9615578,2.3285324e-7,-1.5665457e-8,9.869036e-2,30.955509,442.66559)"
       cx="805.2478"
       cy="1446.0295"
       fx="805.2478"
       fy="1446.0295"
       r="905.32819" />
    <radialGradient
       inkscape:collect="always"
       xlink:href="#linearGradient3509"
       id="radialGradient3801"
       gradientUnits="userSpaceOnUse"
       gradientTransform="matrix(0.9615389,-6.0214666e-3,6.4247877e-4,0.1025929,30.041621,441.87134)"
       cx="805.2478"
       cy="1446.0295"
       fx="805.2478"
       fy="1446.0295"
       r="905.32819" />
    <radialGradient
       inkscape:collect="always"
       xlink:href="#linearGradient3509"
       id="radialGradient3812"
       gradientUnits="userSpaceOnUse"
       gradientTransform="matrix(0.9615578,2.3285324e-7,-1.5665457e-8,9.869036e-2,30.955509,442.66559)"
       cx="805.2478"
       cy="1446.0295"
       fx="805.2478"
       fy="1446.0295"
       r="905.32819" />
    <radialGradient
       inkscape:collect="always"
       xlink:href="#linearGradient3855"
       id="radialGradient3861"
       cx="802.82745"
       cy="-3.4243286"
       fx="802.82745"
       fy="-3.4243286"
       r="685.82929"
       gradientTransform="matrix(1.1062227,-3.0899636e-7,4.3166413e-8,0.1529281,-85.247116,575.3519)"
       gradientUnits="userSpaceOnUse" />
  </defs>
  <sodipodi:namedview
     id="base"
     pagecolor="#ffffff"
     bordercolor="#666666"
     borderopacity="1.0"
     gridtolerance="10000"
     guidetolerance="10"
     objecttolerance="10"
     inkscape:pageopacity="0.0"
     inkscape:pageshadow="2"
     inkscape:zoom="0.71833333"
     inkscape:cx="960"
     inkscape:cy="600"
     inkscape:document-units="px"
     inkscape:current-layer="layer1"
     showgrid="false"
     inkscape:window-width="1656"
     inkscape:window-height="1048"
     inkscape:window-x="22"
     inkscape:window-y="0"
     showguides="true"
     inkscape:guide-bbox="true" />
  <metadata
     id="metadata7">
    <rdf:RDF>
      <cc:Work
         rdf:about="">
        <dc:format>image/svg+xml</dc:format>
        <dc:type
           rdf:resource="http://purl.org/dc/dcmitype/StillImage" />
      </cc:Work>
    </rdf:RDF>
  </metadata>
  <g
     inkscape:label="Layer 1"
     inkscape:groupmode="layer"
     id="layer1"
     transform="translate(157.14285,120)">
    <rect
       style="fill:#222222;fill-opacity:1;stroke:none;stroke-width:10;stroke-linecap:round;stroke-linejoin:miter;stroke-miterlimit:4;stroke-dasharray:none"
       id="rect2383"
       width="1920"
       height="1200"
       x="-157.14285"
       y="-120" />
    <g
       id="g3764">
      <path
         sodipodi:nodetypes="ccccccccccc"
         id="path2650"
         d="M 1084.3205,401.85386 L 928.07168,402.98444 L 928.07168,559.28992 L 1084.3205,559.28992 L 1084.3205,401.85386 z M 1003.4902,454.53982 L 1010.485,454.59629 L 1010.485,515.30954 L 1002.925,515.30954 L 1003.4902,454.53977 L 1003.4902,454.53982 z"
         style="fill:#2e3436;fill-opacity:1;stroke:none" />
      <path
         sodipodi:nodetypes="ccccccccccccccccccc"
         id="path2644"
         d="M 117.02952,400.71008 L 275.6093,400.71008 L 275.6093,559.28992 L 224.67858,559.28992 L 224.67858,503.40199 L 166.06043,503.40199 L 166.66843,509.55265 L 218.56382,509.55265 L 218.56382,559.28992 L 117.02952,559.28992 L 117.02952,456.6861 L 228.15125,456.6861 L 228.15125,450.48331 L 117.44481,450.48331 L 117.02952,400.71008 L 117.02952,400.71008 L 117.02952,400.71008 L 117.02952,400.71008 L 117.02952,400.71008 z"
         style="fill:#2e3436;fill-opacity:1;stroke:none" />
      <path
         sodipodi:nodetypes="ccccccccccccccc"
         id="path2646"
         d="M 320.07747,404.18262 L 320.07747,559.28992 L 477.4997,559.28992 L 477.4997,404.1826 L 425.41143,404.1826 L 425.41143,511.83172 L 419.5104,512.25539 L 419.5104,404.18262 L 374.48056,404.18262 L 374.48056,510.67419 L 368.6931,510.67419 L 368.6931,404.18262 L 322.39244,404.18262 L 320.07747,404.18262 L 320.07747,404.18262 z"
         style="fill:#2e3436;fill-opacity:1;stroke:none" />
      <path
         sodipodi:nodetypes="cccccccccccccc"
         id="path2648"
         d="M 880.12321,401.86761 L 880.12321,449.3258 L 773.63135,449.3258 L 773.63135,456.27088 L 880.12321,456.27088 L 880.12321,559.28992 L 727.33073,559.28992 L 727.33073,509.51669 L 829.19213,509.51669 L 829.19213,502.57159 L 727.33073,502.57159 L 727.33073,401.86761 L 880.12321,401.86761 L 880.12321,401.86761 L 880.12321,401.86761 z"
         style="fill:#2e3436;fill-opacity:1;stroke:none" />
      <path
         style="fill:#2e3436;fill-opacity:1;stroke:none"
         d="M 1129.9541,559.28991 L 1129.9541,404.18262 L 1287.3765,404.18262 L 1287.3765,559.28992 L 1235.2882,559.28992 L 1235.2882,451.64081 L 1229.387,451.21713 L 1229.387,559.28991 L 1184.3574,559.28991 L 1184.3574,452.79832 L 1178.5699,452.79832 L 1178.5699,559.28991 L 1132.2692,559.28991 L 1129.9541,559.28991 L 1129.9541,559.28991 L 1129.9541,559.28991 z"
         id="path2656"
         sodipodi:nodetypes="ccccccccccccccc" />
      <path
         style="fill:#2e3436;fill-opacity:1;stroke:none"
         d="M 678.81126,401.86761 L 523.70413,401.86761 L 523.70413,559.28992 L 678.81142,559.28992 L 678.81142,507.20165 L 571.16216,507.20165 L 570.73851,501.30055 L 678.81126,501.30055 L 678.81126,456.2709 L 572.31972,456.2709 L 572.31972,450.48331 L 678.81126,450.48331 L 678.81126,404.18264 L 678.81126,401.86761 L 678.81126,401.86761 L 678.81126,401.86761 z"
         id="path2654"
         sodipodi:nodetypes="ccccccccccccccc" />
      <path
         sodipodi:nodetypes="ccccccccccccccc"
         id="path2658"
         d="M 1488.6881,401.86759 L 1333.5808,401.86759 L 1333.5808,559.28992 L 1488.6881,559.28992 L 1488.6881,507.20165 L 1381.039,507.20165 L 1380.6153,501.30054 L 1488.6881,501.30054 L 1488.6881,456.2709 L 1382.1965,456.2709 L 1382.1965,450.48331 L 1488.6881,450.48331 L 1488.6881,404.18264 L 1488.6881,401.86759 L 1488.6881,401.86759 z"
         style="fill:#2e3436;fill-opacity:1;stroke:none" />
      <path
         d="M 928.06806,494.48175 L 928.06806,559.28344 L 1084.3198,559.28344 L 1084.3198,502.93928 C 1059.7775,501.12341 1035.1529,499.54671 1010.4935,498.19078 L 1010.4935,515.31846 L 1002.9337,515.31846 L 1003.0991,497.78916 C 978.09079,496.46044 953.06753,495.34818 928.06806,494.48175 z M 1129.9621,506.57743 L 1129.9621,559.28344 L 1132.2773,559.28344 L 1178.5811,559.28344 L 1178.5811,511.11332 C 1162.4408,509.4998 1146.2274,507.9808 1129.9621,506.57743 z M 1184.3689,511.70393 L 1184.3689,559.28344 L 1229.3972,559.28344 L 1229.3972,516.57055 C 1214.4635,514.8519 1199.4439,513.23624 1184.3689,511.70393 z M 1235.2796,517.25566 L 1235.2796,559.28344 L 1287.3713,559.28344 L 1287.3713,523.75236 C 1270.1301,521.44897 1252.761,519.29926 1235.2796,517.25566 z M 1129.9621,507.52241 L 1129.9621,559.28344 L 1132.2773,559.28344 L 1178.5811,559.28344 L 1178.5811,512.08192 C 1162.4451,510.44634 1146.2267,508.94747 1129.9621,507.52241 z M 1184.3689,512.69615 L 1184.3689,559.28344 L 1229.3972,559.28344 L 1229.3972,517.61002 C 1214.4634,515.86933 1199.4473,514.24994 1184.3689,512.69615 z M 1235.2796,518.31875 L 1235.2796,559.28344 L 1287.3713,559.28344 L 1287.3713,524.93358 C 1270.1308,522.60277 1252.7651,520.38876 1235.2796,518.31875 z M 275.60978,527.2724 C 258.12268,530.02567 241.1304,532.93376 224.67561,535.98979 L 224.67561,559.28344 L 275.60978,559.28344 L 275.60978,527.2724 z M 218.55689,537.12376 C 183.20661,543.82367 150.4167,551.22222 120.63381,559.28344 L 218.55689,559.28344 L 218.55689,537.12376 z M 477.50378,504.00238 C 459.87329,505.40528 442.51522,506.93686 425.41201,508.58551 L 425.41201,511.82205 L 419.50591,512.24729 L 419.50591,509.15249 C 385.13732,512.53429 351.90941,516.37828 320.07087,520.72844 L 320.07087,559.28344 L 477.50378,559.28344 L 477.50378,504.00238 z M 774.27331,492.4973 C 758.55612,492.51501 742.90969,492.60951 727.33166,492.80442 L 727.33166,502.56129 L 829.20001,502.56129 L 829.20001,509.50686 L 727.33166,509.50686 L 727.33166,559.28344 L 880.13422,559.28344 L 880.13422,493.72577 C 844.65561,492.86474 809.30699,492.45781 774.27331,492.4973 z M 678.80717,493.72577 C 625.79768,495.02436 573.88487,497.32314 523.71308,500.62409 L 523.71308,559.28344 L 678.80717,559.28344 L 678.80717,507.19167 L 571.15084,507.19167 L 570.74923,501.3092 L 678.80717,501.3092 L 678.80717,493.72577 z M 1333.5806,529.87108 L 1333.5806,559.28344 L 1488.6984,559.28344 L 1488.6984,557.55886 C 1438.9149,546.99306 1386.9854,537.77442 1333.5806,529.87108 z M 928.06806,494.57625 L 928.06806,559.28344 L 1084.3198,559.28344 L 1084.3198,502.84478 C 1059.7734,501.0566 1035.1502,499.49617 1010.4935,498.16715 L 1010.4935,515.31846 L 1002.9337,515.31846 L 1003.0991,497.76554 C 978.08837,496.46374 953.06315,495.41633 928.06806,494.57625 z"
         style="fill:url(#radialGradient3705);fill-opacity:1;stroke:none;stroke-opacity:1"
         id="path3459" />
    </g>
    <g
       id="g3814"
       style="fill:#2e3436">
      <path
         style="fill:#2e3436;fill-opacity:1;stroke:none"
         d="M 1084.3205,401.85386 L 928.07168,402.98444 L 928.07168,559.28992 L 1084.3205,559.28992 L 1084.3205,401.85386 z M 1003.4902,454.53982 L 1010.485,454.59629 L 1010.485,515.30954 L 1002.925,515.30954 L 1003.4902,454.53977 L 1003.4902,454.53982 z"
         id="path3776"
         sodipodi:nodetypes="ccccccccccc" />
      <path
         style="fill:#2e3436;fill-opacity:1;stroke:none"
         d="M 117.02952,400.71008 L 275.6093,400.71008 L 275.6093,559.28992 L 224.67858,559.28992 L 224.67858,503.40199 L 166.06043,503.40199 L 166.66843,509.55265 L 218.56382,509.55265 L 218.56382,559.28992 L 117.02952,559.28992 L 117.02952,456.6861 L 228.15125,456.6861 L 228.15125,450.48331 L 117.44481,450.48331 L 117.02952,400.71008 L 117.02952,400.71008 L 117.02952,400.71008 L 117.02952,400.71008 L 117.02952,400.71008 z"
         id="path3778"
         sodipodi:nodetypes="ccccccccccccccccccc" />
      <path
         style="fill:#2e3436;fill-opacity:1;stroke:none"
         d="M 320.07747,404.18262 L 320.07747,559.28992 L 477.4997,559.28992 L 477.4997,404.1826 L 425.41143,404.1826 L 425.41143,511.83172 L 419.5104,512.25539 L 419.5104,404.18262 L 374.48056,404.18262 L 374.48056,510.67419 L 368.6931,510.67419 L 368.6931,404.18262 L 322.39244,404.18262 L 320.07747,404.18262 L 320.07747,404.18262 z"
         id="path3780"
         sodipodi:nodetypes="ccccccccccccccc" />
      <path
         style="fill:#2e3436;fill-opacity:1;stroke:none"
         d="M 880.12321,401.86761 L 880.12321,449.3258 L 773.63135,449.3258 L 773.63135,456.27088 L 880.12321,456.27088 L 880.12321,559.28992 L 727.33073,559.28992 L 727.33073,509.51669 L 829.19213,509.51669 L 829.19213,502.57159 L 727.33073,502.57159 L 727.33073,401.86761 L 880.12321,401.86761 L 880.12321,401.86761 L 880.12321,401.86761 z"
         id="path3782"
         sodipodi:nodetypes="cccccccccccccc" />
      <path
         sodipodi:nodetypes="ccccccccccccccc"
         id="path3784"
         d="M 1129.9541,559.28991 L 1129.9541,404.18262 L 1287.3765,404.18262 L 1287.3765,559.28992 L 1235.2882,559.28992 L 1235.2882,451.64081 L 1229.387,451.21713 L 1229.387,559.28991 L 1184.3574,559.28991 L 1184.3574,452.79832 L 1178.5699,452.79832 L 1178.5699,559.28991 L 1132.2692,559.28991 L 1129.9541,559.28991 L 1129.9541,559.28991 L 1129.9541,559.28991 z"
         style="fill:#2e3436;fill-opacity:1;stroke:none" />
      <path
         sodipodi:nodetypes="ccccccccccccccc"
         id="path3786"
         d="M 678.81126,401.86761 L 523.70413,401.86761 L 523.70413,559.28992 L 678.81142,559.28992 L 678.81142,507.20165 L 571.16216,507.20165 L 570.73851,501.30055 L 678.81126,501.30055 L 678.81126,456.2709 L 572.31972,456.2709 L 572.31972,450.48331 L 678.81126,450.48331 L 678.81126,404.18264 L 678.81126,401.86761 L 678.81126,401.86761 L 678.81126,401.86761 z"
         style="fill:#2e3436;fill-opacity:1;stroke:none" />
      <path
         style="fill:#2e3436;fill-opacity:1;stroke:none"
         d="M 1488.6881,401.86759 L 1333.5808,401.86759 L 1333.5808,559.28992 L 1488.6881,559.28992 L 1488.6881,507.20165 L 1381.039,507.20165 L 1380.6153,501.30054 L 1488.6881,501.30054 L 1488.6881,456.2709 L 1382.1965,456.2709 L 1382.1965,450.48331 L 1488.6881,450.48331 L 1488.6881,404.18264 L 1488.6881,401.86759 L 1488.6881,401.86759 z"
         id="path3788"
         sodipodi:nodetypes="ccccccccccccccc" />
    </g>
    <path
       d="M 928.06806,494.48175 L 928.06806,559.28344 L 1084.3198,559.28344 L 1084.3198,502.93928 C 1059.7775,501.12341 1035.1529,499.54671 1010.4935,498.19078 L 1010.4935,515.31846 L 1002.9337,515.31846 L 1003.0991,497.78916 C 978.09079,496.46044 953.06753,495.34818 928.06806,494.48175 z M 1129.9621,506.57743 L 1129.9621,559.28344 L 1132.2773,559.28344 L 1178.5811,559.28344 L 1178.5811,511.11332 C 1162.4408,509.4998 1146.2274,507.9808 1129.9621,506.57743 z M 1184.3689,511.70393 L 1184.3689,559.28344 L 1229.3972,559.28344 L 1229.3972,516.57055 C 1214.4635,514.8519 1199.4439,513.23624 1184.3689,511.70393 z M 1235.2796,517.25566 L 1235.2796,559.28344 L 1287.3713,559.28344 L 1287.3713,523.75236 C 1270.1301,521.44897 1252.761,519.29926 1235.2796,517.25566 z M 1129.9621,507.52241 L 1129.9621,559.28344 L 1132.2773,559.28344 L 1178.5811,559.28344 L 1178.5811,512.08192 C 1162.4451,510.44634 1146.2267,508.94747 1129.9621,507.52241 z M 1184.3689,512.69615 L 1184.3689,559.28344 L 1229.3972,559.28344 L 1229.3972,517.61002 C 1214.4634,515.86933 1199.4473,514.24994 1184.3689,512.69615 z M 1235.2796,518.31875 L 1235.2796,559.28344 L 1287.3713,559.28344 L 1287.3713,524.93358 C 1270.1308,522.60277 1252.7651,520.38876 1235.2796,518.31875 z M 275.60978,527.2724 C 258.12268,530.02567 241.1304,532.93376 224.67561,535.98979 L 224.67561,559.28344 L 275.60978,559.28344 L 275.60978,527.2724 z M 218.55689,537.12376 C 183.20661,543.82367 150.4167,551.22222 120.63381,559.28344 L 218.55689,559.28344 L 218.55689,537.12376 z M 477.50378,504.00238 C 459.87329,505.40528 442.51522,506.93686 425.41201,508.58551 L 425.41201,511.82205 L 419.50591,512.24729 L 419.50591,509.15249 C 385.13732,512.53429 351.90941,516.37828 320.07087,520.72844 L 320.07087,559.28344 L 477.50378,559.28344 L 477.50378,504.00238 z M 774.27331,492.4973 C 758.55612,492.51501 742.90969,492.60951 727.33166,492.80442 L 727.33166,502.56129 L 829.20001,502.56129 L 829.20001,509.50686 L 727.33166,509.50686 L 727.33166,559.28344 L 880.13422,559.28344 L 880.13422,493.72577 C 844.65561,492.86474 809.30699,492.45781 774.27331,492.4973 z M 678.80717,493.72577 C 625.79768,495.02436 573.88487,497.32314 523.71308,500.62409 L 523.71308,559.28344 L 678.80717,559.28344 L 678.80717,507.19167 L 571.15084,507.19167 L 570.74923,501.3092 L 678.80717,501.3092 L 678.80717,493.72577 z M 1333.5806,529.87108 L 1333.5806,559.28344 L 1488.6984,559.28344 L 1488.6984,557.55886 C 1438.9149,546.99306 1386.9854,537.77442 1333.5806,529.87108 z M 928.06806,494.57625 L 928.06806,559.28344 L 1084.3198,559.28344 L 1084.3198,502.84478 C 1059.7734,501.0566 1035.1502,499.49617 1010.4935,498.16715 L 1010.4935,515.31846 L 1002.9337,515.31846 L 1003.0991,497.76554 C 978.08837,496.46374 953.06315,495.41633 928.06806,494.57625 z"
       style="fill:url(#radialGradient3801);fill-opacity:1;stroke:none;stroke-opacity:1;opacity:0.45762712"
       id="path3790" />
    <path
       id="path3825"
       style="fill:url(#radialGradient3861);fill-opacity:1;stroke:none"
       d="M 1084.3205,728.97414 L 928.07168,727.84356 L 928.07168,571.53808 L 1084.3205,571.53808 L 1084.3205,728.97414 z M 1003.4902,676.28818 L 1010.485,676.23171 L 1010.485,615.51846 L 1002.925,615.51846 L 1003.4902,676.28823 L 1003.4902,676.28818 zM 117.02952,730.11792 L 275.6093,730.11792 L 275.6093,571.53808 L 224.67858,571.53808 L 224.67858,627.42601 L 166.06043,627.42601 L 166.66843,621.27535 L 218.56382,621.27535 L 218.56382,571.53808 L 117.02952,571.53808 L 117.02952,674.1419 L 228.15125,674.1419 L 228.15125,680.34469 L 117.44481,680.34469 L 117.02952,730.11792 L 117.02952,730.11792 L 117.02952,730.11792 L 117.02952,730.11792 L 117.02952,730.11792 zM 320.07747,726.64538 L 320.07747,571.53808 L 477.4997,571.53808 L 477.4997,726.6454 L 425.41143,726.6454 L 425.41143,618.99628 L 419.5104,618.57261 L 419.5104,726.64538 L 374.48056,726.64538 L 374.48056,620.15381 L 368.6931,620.15381 L 368.6931,726.64538 L 322.39244,726.64538 L 320.07747,726.64538 L 320.07747,726.64538 zM 880.12321,728.96039 L 880.12321,681.5022 L 773.63135,681.5022 L 773.63135,674.55712 L 880.12321,674.55712 L 880.12321,571.53808 L 727.33073,571.53808 L 727.33073,621.31131 L 829.19213,621.31131 L 829.19213,628.25641 L 727.33073,628.25641 L 727.33073,728.96039 L 880.12321,728.96039 L 880.12321,728.96039 L 880.12321,728.96039 zM 1129.9541,571.53809 L 1129.9541,726.64538 L 1287.3765,726.64538 L 1287.3765,571.53808 L 1235.2882,571.53808 L 1235.2882,679.18719 L 1229.387,679.61087 L 1229.387,571.53809 L 1184.3574,571.53809 L 1184.3574,678.02968 L 1178.5699,678.02968 L 1178.5699,571.53809 L 1132.2692,571.53809 L 1129.9541,571.53809 L 1129.9541,571.53809 L 1129.9541,571.53809 zM 678.81126,728.96039 L 523.70413,728.96039 L 523.70413,571.53808 L 678.81142,571.53808 L 678.81142,623.62635 L 571.16216,623.62635 L 570.73851,629.52745 L 678.81126,629.52745 L 678.81126,674.5571 L 572.31972,674.5571 L 572.31972,680.34469 L 678.81126,680.34469 L 678.81126,726.64536 L 678.81126,728.96039 L 678.81126,728.96039 L 678.81126,728.96039 zM 1488.6881,728.96041 L 1333.5808,728.96041 L 1333.5808,571.53808 L 1488.6881,571.53808 L 1488.6881,623.62635 L 1381.039,623.62635 L 1380.6153,629.52746 L 1488.6881,629.52746 L 1488.6881,674.5571 L 1382.1965,674.5571 L 1382.1965,680.34469 L 1488.6881,680.34469 L 1488.6881,726.64536 L 1488.6881,728.96041 L 1488.6881,728.96041 z" />
  </g>
</svg>
